<svg xmlns="http://www.w3.org/2000/svg" width="256" height="256" viewBox="0 0 100 100"><rect width="100" height="100" rx="0" fill="#978af3"></rect><path fill="#fff" d="M40.35 37.16L40.35 37.16Q40.35 40.82 38.61 43.92Q36.87 47.03 32.79 48.73L32.79 48.73Q37.63 50.34 40.01 53.78Q42.39 57.23 42.39 61.56L42.39 61.56Q42.39 69.30 36.82 73.03Q31.26 76.78 20.97 76.78L20.97 76.78Q17.40 76.78 14.04 76.48Q10.69 76.18 7.63 75.33L7.63 75.33Q4.06 74.31 4.06 71.42L4.06 71.42L4.06 27.90Q4.06 25.44 6.86 24.67L6.86 24.67Q9.75 23.82 12.98 23.52Q16.21 23.23 20.04 23.23L20.04 23.23Q29.64 23.23 35.00 26.63Q40.35 30.02 40.35 37.16ZM22.42 51.78L10.86 51.78L10.86 70.15Q12.90 70.57 15.57 70.83Q18.25 71.08 20.97 71.08L20.97 71.08Q28.03 71.08 31.68 68.74Q35.34 66.41 35.34 61.39L35.34 61.39Q35.34 56.97 32.06 54.38Q28.79 51.78 22.42 51.78L22.42 51.78ZM10.86 29.69L10.86 46.17L22.42 46.17Q27.77 46.17 30.53 43.80Q33.30 41.41 33.30 37.34L33.30 37.34Q33.30 28.92 20.04 28.92L20.04 28.92Q17.06 28.92 14.89 29.13Q12.73 29.34 10.86 29.69L10.86 29.69ZM58.71 76.27L58.71 76.27Q54.97 76.27 54.97 73.20L54.97 73.20L54.97 25.18Q56.50 23.65 59.56 23.65L59.56 23.65Q61.60 23.65 63.05 24.46Q64.49 25.27 65.68 27.39L65.68 27.39L81.92 54.59Q82.94 56.38 84.04 58.37Q85.15 60.37 86.17 62.37Q87.19 64.37 88.08 66.11Q88.97 67.85 89.57 69.04L89.57 69.04L89.91 68.95Q89.23 62.07 89.10 55.10Q88.97 48.13 88.97 41.50L88.97 41.50L88.97 24.33Q89.48 24.16 90.33 23.95Q91.18 23.73 92.20 23.73L92.20 23.73Q95.94 23.73 95.94 26.80L95.94 26.80L95.94 74.91Q95.18 75.59 93.99 75.97Q92.80 76.35 91.35 76.35L91.35 76.35Q89.31 76.35 87.87 75.54Q86.42 74.73 85.23 72.61L85.23 72.61L69.08 45.41Q68.06 43.71 66.91 41.67Q65.77 39.63 64.70 37.67Q63.64 35.72 62.75 33.94Q61.86 32.15 61.26 30.96L61.26 30.96L60.92 31.05Q61.35 35.13 61.60 40.35Q61.86 45.58 61.86 50.26L61.86 50.26L61.86 75.67Q61.43 75.84 60.54 76.05Q59.65 76.27 58.71 76.27Z"></path></svg>